<?xml version="1.0" encoding="UTF-8"?>
<svg version="1.1" xmlns="http://www.w3.org/2000/svg" width="401" height="375">
<path d="M0 0 C1.16994029 -0.0060911 2.33988058 -0.01218221 3.5452736 -0.01845789 C6.76607693 -0.03215015 9.98655309 -0.03256235 13.2073704 -0.02708292 C16.69152499 -0.02439888 20.17561589 -0.03897029 23.65974426 -0.05117798 C30.47606115 -0.07217779 37.29229288 -0.07677592 44.10863831 -0.07499009 C49.65366681 -0.0736795 55.19866887 -0.07750176 60.7436924 -0.08491516 C62.34447823 -0.0870145 63.94526406 -0.0891121 65.54604989 -0.09120798 C66.7414201 -0.09277327 66.7414201 -0.09277327 67.96093921 -0.09437019 C83.01553331 -0.11325123 98.07007863 -0.11222918 113.12467966 -0.10540086 C126.87152219 -0.09982931 140.61817814 -0.12063802 154.36497708 -0.15376133 C168.50522729 -0.18756615 182.6453883 -0.20265807 196.78567964 -0.1980443 C204.71426669 -0.19580616 212.64268139 -0.20094608 220.57123375 -0.22593689 C227.32294208 -0.24703823 234.07438361 -0.25045532 240.82610323 -0.2316373 C244.26508719 -0.22253263 247.70357489 -0.22117177 251.142519 -0.24199295 C274.34877873 -0.35543473 292.23042745 2.51818454 309.76057434 19.15222168 C321.1092643 30.50091164 331.09900374 45.40361589 331.13698292 62.04946899 C331.14144076 62.9605734 331.14589861 63.8716778 331.15049154 64.81039143 C331.15021499 66.29855004 331.15021499 66.29855004 331.14993286 67.81677246 C331.15360955 68.8776794 331.15728624 69.93858633 331.16107434 71.03164196 C331.17210234 74.59267343 331.17595356 78.1536757 331.17976379 81.71472168 C331.18602917 84.26576327 331.19267603 86.81680395 331.19967651 89.36784363 C331.21889598 97.02773382 331.22950409 104.68761888 331.2384043 112.34752703 C331.24279222 115.95905168 331.24815777 119.57057488 331.25339317 123.18209839 C331.2704035 135.19540604 331.28489587 147.2087128 331.29214191 159.22203064 C331.29405166 162.33759563 331.29597201 165.45316062 331.29792786 168.56872559 C331.2984116 169.3430385 331.29889534 170.11735141 331.29939374 170.91512835 C331.30768735 183.44790198 331.33301382 195.98057996 331.36550853 208.51331186 C331.39863318 221.39454619 331.41659559 234.275732 331.41978616 247.15700912 C331.42194638 254.38360274 331.43062308 261.61005692 331.45624733 268.83660889 C331.48031388 275.63938728 331.48374621 282.44187216 331.47348595 289.24469948 C331.47299136 291.73549038 331.47928877 294.22629376 331.49304199 296.71704674 C331.6190066 320.89089403 331.6190066 320.89089403 327.00276184 331.39440918 C326.54752294 332.45307693 326.09228403 333.51174469 325.62325001 334.60249329 C317.34613732 353.06110184 301.7580543 365.24212639 283.29182434 372.45300293 C277.91730328 374.31890808 272.76316775 375.51737818 267.04817867 375.52583694 C266.07027306 375.52967809 265.09236744 375.53351923 264.08482832 375.53747678 C262.4847545 375.53617705 262.4847545 375.53617705 260.85235596 375.53485107 C259.14355596 375.53930776 259.14355596 375.53930776 257.40023476 375.54385448 C253.57429563 375.55254168 249.74838779 375.55404976 245.92243958 375.55554199 C243.18258479 375.55963281 240.4427333 375.56517436 237.70288086 375.57058716 C230.25219723 375.58415916 222.801519 375.59019371 215.35082507 375.59459782 C210.69544088 375.59736271 206.04005877 375.60160057 201.38467598 375.60610199 C188.48693567 375.61829424 175.58919702 375.62859295 162.69145107 375.63197708 C161.86621427 375.63219665 161.04097747 375.63241621 160.1907335 375.63264243 C158.94996436 375.63296985 158.94996436 375.63296985 157.68412918 375.63330388 C156.00803212 375.63374734 154.33193507 375.63419391 152.65583801 375.63464355 C151.82444111 375.63486498 150.99304421 375.63508641 150.13645346 375.63531455 C136.67507845 375.6392597 123.21375768 375.65670525 109.75240361 375.68000308 C95.92083343 375.70374768 82.08929043 375.71618038 68.25769955 375.717345 C60.49628786 375.71826013 52.73494679 375.72397125 44.97355461 375.74216461 C38.36223408 375.75760776 31.75100599 375.76266139 25.13967084 375.75442651 C21.77001951 375.75053451 18.40070458 375.75302846 15.03105164 375.76548386 C11.36789378 375.77822682 7.70520826 375.77231318 4.04205322 375.76190186 C2.46540198 375.77398646 2.46540198 375.77398646 0.8568992 375.7863152 C-18.52727337 375.6580841 -35.44283659 367.35874248 -49.36051941 354.17565918 C-63.3593549 339.40948012 -69.34147998 321.00174304 -69.25793457 300.87812805 C-69.26176012 299.8795481 -69.26558566 298.88096815 -69.26952714 297.85212821 C-69.27976736 294.53779769 -69.27588213 291.22364333 -69.27189636 287.90930176 C-69.27624788 285.5198755 -69.28143249 283.13045064 -69.28738403 280.74102783 C-69.29935501 274.94253534 -69.30193085 269.14409678 -69.29958377 263.34559343 C-69.29779441 258.62678513 -69.29956344 253.90799082 -69.30380821 249.18918419 C-69.3044034 248.51533064 -69.30499859 247.84147709 -69.30561182 247.14720374 C-69.30682369 245.77784731 -69.30803782 244.40849089 -69.30925419 243.03913447 C-69.32011119 230.21923192 -69.31797632 217.39935572 -69.31186935 204.5794517 C-69.30670518 192.88328062 -69.31794569 181.18719295 -69.33696757 169.49103836 C-69.35639973 157.44919285 -69.36459236 145.40738669 -69.36084431 133.36552542 C-69.35893997 126.61794679 -69.36134417 119.87043905 -69.37555885 113.12287331 C-69.38819341 106.77227893 -69.38613998 100.42185057 -69.37314796 94.07125854 C-69.37079465 91.75104909 -69.37347178 89.43082775 -69.38177109 87.11063194 C-69.46487355 62.0556442 -66.28843079 39.79323962 -48.39958191 20.77331543 C-34.97948226 7.48414359 -18.9270336 -0.09360243 0 0 Z " fill="#020202" transform="translate(69.99723815917969,-0.3944091796875)"/>
<path d="M0 0 C-0.63175575 6.47365751 -1.64423968 12.75017774 -2.9609375 19.1171875 C-3.24778915 20.52389206 -3.24778915 20.52389206 -3.54043579 21.95901489 C-3.94360823 23.9309252 -4.34877935 25.90242782 -4.75585938 27.87353516 C-5.37160878 30.85856008 -5.97922135 33.84515878 -6.5859375 36.83203125 C-10.36341641 55.30266443 -10.36341641 55.30266443 -13 64 C-17.82650079 61.10409953 -21.31799635 57.70858641 -25.0703125 53.51171875 C-26.84737907 51.7569191 -26.84737907 51.7569191 -28.92070007 52.21038818 C-31.37102871 53.14089774 -32.44869293 54.18126656 -34.19848633 56.12207031 C-35.10941292 57.11481964 -35.10941292 57.11481964 -36.03874207 58.12762451 C-36.6924025 58.85378967 -37.34606293 59.57995483 -38.01953125 60.328125 C-44.11692748 66.95377902 -50.32589502 73.43592513 -56.69921875 79.796875 C-57.92621994 81.02235046 -57.92621994 81.02235046 -59.17800903 82.27258301 C-61.67918922 84.76705499 -64.18325028 87.25861 -66.6875 89.75 C-68.40323345 91.46069817 -70.11872926 93.17163472 -71.83398438 94.8828125 C-75.61879353 98.6578362 -79.40618287 102.43025388 -83.19476318 106.20149231 C-84.76634152 107.7672125 -86.33597957 109.33482359 -87.90405273 110.90405273 C-89.18800165 112.18800165 -90.47669979 113.4672498 -91.7734375 114.73828125 C-94.58747395 117.50427317 -97.28531504 120.29961296 -99.8203125 123.32421875 C-106.28118313 130.751737 -113.47333139 137.52575754 -120.46630859 144.44580078 C-129.78216163 153.62159391 -129.78216163 153.62159391 -138.54541016 163.31835938 C-141.02951616 166.19021607 -143.73195766 168.83858822 -146.4375 171.5 C-146.97826172 172.03625 -147.51902344 172.5725 -148.07617188 173.125 C-149.38176617 174.41904036 -150.69052996 175.70988174 -152 177 C-154.98435256 175.65772899 -157.07879551 174.17341717 -159.39160156 171.8671875 C-160.35214447 170.91610107 -160.35214447 170.91610107 -161.33209229 169.94580078 C-162.01140808 169.26243652 -162.69072388 168.57907227 -163.390625 167.875 C-164.44754547 166.82094971 -164.44754547 166.82094971 -165.52581787 165.74560547 C-167.01088353 164.26189896 -168.49343381 162.77567108 -169.97363281 161.28710938 C-172.24844325 159.00156409 -174.5337536 156.72690983 -176.8203125 154.453125 C-178.26105868 153.01105781 -179.70118465 151.56837065 -181.140625 150.125 C-181.82803772 149.44163574 -182.51545044 148.75827148 -183.22369385 148.05419922 C-183.85144714 147.4201416 -184.47920044 146.78608398 -185.12597656 146.1328125 C-185.68238831 145.57480957 -186.23880005 145.01680664 -186.81207275 144.44189453 C-188 143 -188 143 -188 141 C-188.99 140.67 -189.98 140.34 -191 140 C-194.35342649 136.90452939 -197.15604126 133.55494842 -200 130 C-201.6551926 128.32193772 -203.32379613 126.65707458 -205 125 C-205.96550011 124.03581305 -206.93033331 123.07095788 -207.89453125 122.10546875 C-208.37470703 121.62529297 -208.85488281 121.14511719 -209.34960938 120.65039062 C-211.56640625 118.43359375 -213.78320312 116.21679688 -216 114 C-214.51346494 110.53370165 -212.54277649 108.30977964 -209.8671875 105.671875 C-209.06152344 104.87265625 -208.25585938 104.0734375 -207.42578125 103.25 C-206.58402344 102.425 -205.74226563 101.6 -204.875 100.75 C-204.02550781 99.90953125 -203.17601562 99.0690625 -202.30078125 98.203125 C-200.20495077 96.13084317 -198.10459287 94.06337607 -196 92 C-192.8804428 93.38685223 -190.74144201 95.00189491 -188.328125 97.40625 C-187.33232422 98.39818359 -187.33232422 98.39818359 -186.31640625 99.41015625 C-185.29353516 100.44462891 -185.29353516 100.44462891 -184.25 101.5 C-183.55261719 102.18964844 -182.85523438 102.87929687 -182.13671875 103.58984375 C-181.47800781 104.25113281 -180.81929687 104.91242188 -180.140625 105.59375 C-179.53766602 106.19896484 -178.93470703 106.80417969 -178.31347656 107.42773438 C-177 109 -177 109 -177 111 C-176.443125 111.226875 -175.88625 111.45375 -175.3125 111.6875 C-169.62088266 114.91787741 -165.46726556 120.79955271 -161.16015625 125.6171875 C-158.84784805 128.16783488 -156.47314013 130.60663858 -154 133 C-150.08790692 131.40584497 -147.62781914 128.86106668 -144.6875 125.875 C-143.78386719 124.96492188 -142.88023437 124.05484375 -141.94921875 123.1171875 C-139.87697422 120.96880872 -137.92079458 118.75106538 -135.9855957 116.47900391 C-131.79010815 111.67228888 -127.29902045 107.18489179 -122.76963806 102.69447327 C-121.24406023 101.18187668 -119.72181914 99.66598798 -118.20031738 98.14929199 C-114.42383018 94.38604199 -110.64186489 90.62831332 -106.86004639 86.87042236 C-103.65240132 83.68264332 -100.44690705 80.49272958 -97.24412537 77.30006409 C-95.75796311 75.82029444 -94.26878004 74.34361435 -92.77941895 72.86706543 C-88.20973987 68.31383199 -83.78882304 63.7153512 -79.59066772 58.81774902 C-76.99490553 55.85141978 -74.2092554 53.0855434 -71.41015625 50.3125 C-70.82076767 49.72452637 -70.23137909 49.13655273 -69.62413025 48.53076172 C-67.77262382 46.68477639 -65.91764183 44.84233108 -64.0625 43 C-62.79338627 41.7359115 -61.52450411 40.47159044 -60.25585938 39.20703125 C-57.1732368 36.13533276 -54.08749572 33.06679992 -51 30 C-52.83692389 25.99625569 -55.49117916 23.28042066 -58.625 20.25 C-59.140625 19.74339844 -59.65625 19.23679687 -60.1875 18.71484375 C-61.45383339 17.47196098 -62.7263144 16.23534724 -64 15 C-60.35091863 12.56727909 -56.77075585 11.88654055 -52.5546875 10.9765625 C-51.28976974 10.69539078 -51.28976974 10.69539078 -49.9992981 10.40853882 C-47.29247486 9.80807135 -44.58385007 9.21624981 -41.875 8.625 C-39.2262743 8.04124277 -36.57795388 7.45568077 -33.92974854 6.86956787 C-32.18210209 6.48309375 -30.43417713 6.09787688 -28.68597412 5.71392822 C-24.46321654 4.78335555 -20.24833621 3.82990802 -16.04394531 2.81933594 C-15.2668924 2.63269379 -14.48983948 2.44605164 -13.6892395 2.25375366 C-12.23646074 1.90231986 -10.78462344 1.54696132 -9.33395386 1.18692017 C-6.07666952 0.39771075 -3.3835461 0 0 0 Z " fill="#FAFAF9" transform="translate(315,68)"/>
<path d="M0 0 C0.10261565 7.78796953 0.17196781 15.57576064 0.21972656 23.36425781 C0.23737956 26.00618926 0.26682322 28.64721635 0.30175781 31.2890625 C0.63344085 57.04327461 -0.92428938 79.04357961 -19 99 C-19.63808594 99.70769531 -20.27617187 100.41539062 -20.93359375 101.14453125 C-34.68210226 115.61227763 -53.17444741 123.60897461 -73.02172852 124.33911133 C-92.0980458 124.6552221 -110.79873511 117.91801806 -125 105 C-125.68320313 104.38511719 -126.36640625 103.77023437 -127.0703125 103.13671875 C-139.90033937 90.96526741 -149.59565324 73.07484298 -150.3125 55.125 C-150.38518974 51.06164353 -150.17132798 47.07760595 -150 43 C-139.77 43 -129.54 43 -119 43 C-118.79375 45.8875 -118.5875 48.775 -118.375 51.75 C-117.25948852 63.69055716 -113.16023325 73.89392058 -104 82 C-100.81265743 84.3468447 -97.53879133 86.23321792 -94 88 C-93.17886719 88.41507812 -92.35773438 88.83015625 -91.51171875 89.2578125 C-81.83265609 93.45843757 -70.00203067 93.71837542 -60 90.375 C-48.96378799 85.58318026 -40.02034719 78.11755251 -34.7890625 67.1171875 C-34.52867187 66.41851562 -34.26828125 65.71984375 -34 65 C-33.63519531 64.03835937 -33.27039063 63.07671875 -32.89453125 62.0859375 C-31.62227478 57.54371636 -31.95280008 53.01889249 -32.02880859 48.34106445 C-32.18376993 31.82420698 -32.18376993 31.82420698 -28.73828125 27.06640625 C-25.96827257 24.40220963 -23.14348743 22.20260912 -20 20 C-18.1352274 18.06405984 -18.1352274 18.06405984 -16.5625 16.0625 C-13.41328691 12.37430178 -10.04639715 8.93344609 -6.625 5.5 C-6.08818604 4.95867432 -5.55137207 4.41734863 -4.99829102 3.85961914 C-1.12375307 0 -1.12375307 0 0 0 Z " fill="#FAFAF9" transform="translate(237,184)"/>
<path d="M0 0 C28.38 0 56.76 0 86 0 C86.165 7.095 86.33 14.19 86.5 21.5 C86.57283203 23.72427734 86.64566406 25.94855469 86.72070312 28.24023438 C86.98761029 42.22682273 86.98761029 42.22682273 84.29345703 47.06396484 C82.29581269 49.04878322 80.35760584 50.48080467 78 52 C76.91970549 53.17392617 75.87181767 54.37941041 74.875 55.625 C71.312356 59.77031942 67.48208211 63.63127973 63.625 67.5 C62.99319824 68.13631348 62.36139648 68.77262695 61.71044922 69.42822266 C61.1176416 70.01909668 60.52483398 70.6099707 59.9140625 71.21875 C59.3773291 71.75435547 58.8405957 72.28996094 58.28759766 72.84179688 C57 74 57 74 56 74 C56 59.81 56 45.62 56 31 C37.52 31 19.04 31 0 31 C0 20.77 0 10.54 0 0 Z " fill="#FAFAF9" transform="translate(151,67)"/>
<path d="M0 0 C2.75512265 1.93477714 4.98737848 4.17948055 7.3359375 6.58984375 C8.22796875 7.49992188 9.12 8.41 10.0390625 9.34765625 C10.71453125 10.04632813 11.39 10.745 12.0859375 11.46484375 C10.99616168 15.03138278 10.09825908 17.44841497 7.8359375 20.46484375 C5.71326528 23.33102317 5.71326528 23.33102317 6.7109375 26.40234375 C7.3915625 27.91828125 7.3915625 27.91828125 8.0859375 29.46484375 C8.48075311 30.75059194 8.8559401 32.04253707 9.2109375 33.33984375 C9.4996875 34.37109375 9.7884375 35.40234375 10.0859375 36.46484375 C14.7059375 37.12484375 19.3259375 37.78484375 24.0859375 38.46484375 C24.0859375 45.06484375 24.0859375 51.66484375 24.0859375 58.46484375 C21.8584375 58.93921875 19.6309375 59.41359375 17.3359375 59.90234375 C13.70249888 60.82770146 10.78212379 61.69386058 8.1953125 64.55859375 C6.58593494 67.95868718 5.87717918 70.36886258 6.5859375 74.08984375 C7.0809375 74.87359375 7.5759375 75.65734375 8.0859375 76.46484375 C12.0859375 83.20168586 12.0859375 83.20168586 12.0859375 86.46484375 C10.0234375 88.77734375 10.0234375 88.77734375 7.0859375 91.46484375 C6.52003906 92.02300781 5.95414062 92.58117187 5.37109375 93.15625 C0.84270584 97.42700533 0.84270584 97.42700533 -2.4140625 97.58984375 C-4.55599762 96.62597294 -6.41786108 95.56165669 -8.4140625 94.33984375 C-11.63913017 92.22653579 -11.63913017 92.22653579 -14.5390625 92.58984375 C-16.21627791 93.20776522 -17.8822171 93.85671585 -19.5390625 94.52734375 C-21.9140625 95.46484375 -21.9140625 95.46484375 -24.9140625 95.46484375 C-25.9040625 100.08484375 -26.8940625 104.70484375 -27.9140625 109.46484375 C-32.2040625 109.46484375 -36.4940625 109.46484375 -40.9140625 109.46484375 C-39.73484871 104.7479886 -37.97201901 100.34230802 -36.20019531 95.82714844 C-34.53361561 91.46642923 -33.44921281 87.33471367 -32.6640625 82.71484375 C-31.5801374 77.90533179 -31.5801374 77.90533179 -28.72265625 76.015625 C-26.97541121 75.35682769 -25.20362858 74.75979077 -23.4140625 74.2265625 C-18.75293975 72.80637666 -15.92690592 70.1822739 -13.4765625 66.02734375 C-9.15070192 57.57225263 -7.0230979 49.32986741 -9.6328125 39.85546875 C-10.59181073 37.61265031 -11.66566125 35.5592011 -12.9140625 33.46484375 C-13.2646875 32.82804687 -13.6153125 32.19125 -13.9765625 31.53515625 C-17.4578239 25.90228191 -22.84978366 22.59419739 -29.19140625 20.83203125 C-29.75988281 20.71085937 -30.32835937 20.5896875 -30.9140625 20.46484375 C-31.25438824 15.75070204 -31.44038402 11.16918143 -30.9140625 6.46484375 C-28.2265625 3.52734375 -28.2265625 3.52734375 -24.9140625 2.46484375 C-22.0698603 2.60028195 -20.42423837 3.1686126 -17.9765625 4.58984375 C-14.87067981 5.90749095 -13.14620369 5.39719217 -9.9140625 4.46484375 C-7.8206208 3.16351512 -5.82050542 1.8007681 -3.84375 0.328125 C-1.9140625 -0.53515625 -1.9140625 -0.53515625 0 0 Z " fill="#F7F7F6" transform="translate(277.9140625,165.53515625)"/>
<path d="M0 0 C0.495 0.99 0.495 0.99 1 2 C-0.06012706 3.23121385 -1.12324005 4.45985685 -2.1875 5.6875 C-2.77917969 6.37199219 -3.37085938 7.05648437 -3.98046875 7.76171875 C-6.23694142 10.26260625 -8.61310504 12.62530122 -11 15 C-12.1686726 16.16807862 -13.33702496 17.33647771 -14.50512695 18.50512695 C-24.00341797 28.00341797 -33.50170898 37.50170898 -43 47 C-43.66 46.67 -44.32 46.34 -45 46 C-44.3702124 45.37544922 -43.7404248 44.75089844 -43.09155273 44.10742188 C-40.72064355 41.75371686 -38.352126 39.39765427 -35.98510742 37.04003906 C-34.96682708 36.02673848 -33.94764526 35.01434288 -32.92749023 34.00292969 C-27.56084425 28.68107162 -22.2616379 23.34698847 -17.35498047 17.58984375 C-15.66588117 15.60796724 -13.94739225 13.73101533 -12 12 C-11.34 12 -10.68 12 -10 12 C-9.75507813 11.42765625 -9.51015625 10.8553125 -9.2578125 10.265625 C-7.78889901 7.61975598 -6.04651756 5.85146861 -3.875 3.75 C-3.15054688 3.04359375 -2.42609375 2.3371875 -1.6796875 1.609375 C-1.12539062 1.07828125 -0.57109375 0.5471875 0 0 Z " fill="#232423" transform="translate(239,166)"/>
<path d="M0 0 C0 3.4250784 -0.50068083 4.09133089 -2.5 6.75 C-2.9640625 7.38421875 -3.428125 8.0184375 -3.90625 8.671875 C-5.69764169 10.66379561 -7.4734942 12.32028706 -9.5 14.05859375 C-14.56332759 18.41375548 -19.28388124 23.09779978 -24.00292969 27.81762695 C-25.52002025 29.33249086 -27.04499737 30.83912592 -28.5703125 32.34570312 C-29.53694493 33.309408 -30.50310897 34.27358298 -31.46875 35.23828125 C-32.77489258 36.5382605 -32.77489258 36.5382605 -34.10742188 37.86450195 C-36.22108617 39.77388767 -36.22108617 39.77388767 -36 42 C-38.8125 44.6875 -38.8125 44.6875 -42 47 C-42.99 46.67 -43.98 46.34 -45 46 C-44.56453354 45.56675415 -44.12906708 45.1335083 -43.68040466 44.68713379 C-39.11840131 40.14738049 -34.56002233 35.60401065 -30.00366211 31.05859375 C-28.30633333 29.36627089 -26.60810523 27.6748495 -24.90893555 25.984375 C-22.45640659 23.54407631 -20.00720904 21.10047494 -17.55859375 18.65625 C-16.80726669 17.91008423 -16.05593964 17.16391846 -15.28184509 16.3951416 C-11.16175188 12.27548047 -7.21653563 8.0663444 -3.42567444 3.64099121 C-2.3327733 2.38303139 -1.1783242 1.1783242 0 0 Z " fill="#1C1C1B" transform="translate(285,119)"/>
<path d="M0 0 C0 6.75759049 -8.32487534 12.36864896 -12.85717773 16.92089844 C-15.89511994 19.95705802 -18.94385625 22.98216857 -22 26 C-22.66 25.67 -23.32 25.34 -24 25 C-23.52167725 24.52691406 -23.04335449 24.05382812 -22.55053711 23.56640625 C-20.3434466 21.38035594 -18.14046367 19.19020871 -15.9375 17 C-15.18533203 16.25621094 -14.43316406 15.51242188 -13.65820312 14.74609375 C-8.89181629 10.00034062 -4.35318987 5.12776949 0 0 Z " fill="#242324" transform="translate(234,113)"/>
<path d="M0 0 C0.33 0.99 0.66 1.98 1 3 C-5.6 9.6 -12.2 16.2 -19 23 C-19.66 22.67 -20.32 22.34 -21 22 C-20.57702637 21.58226318 -20.15405273 21.16452637 -19.71826172 20.73413086 C-17.76776697 18.80466929 -15.82137458 16.87111744 -13.875 14.9375 C-13.20984375 14.28072266 -12.5446875 13.62394531 -11.859375 12.94726562 C-7.68435554 8.79271195 -3.77496101 4.52172121 0 0 Z " fill="#222222" transform="translate(186,220)"/>
<path d="M0 0 C0.33 0 0.66 0 1 0 C1 12.87 1 25.74 1 39 C1.99 39.33 2.98 39.66 4 40 C2.68 40.99 1.36 41.98 0 43 C0 28.81 0 14.62 0 0 Z " fill="#EDEDEC" transform="translate(207,98)"/>
<path d="M0 0 C0.33 0.66 0.66 1.32 1 2 C-2.86364295 6.48717034 -6.74790208 10.87675353 -11 15 C-11.99 14.67 -12.98 14.34 -14 14 C-13.38125 13.7525 -12.7625 13.505 -12.125 13.25 C-9.88950792 12.19995835 -9.88950792 12.19995835 -9.125 10.1875 C-7.75416045 7.52197865 -6.02447963 5.83014158 -3.875 3.75 C-3.15054688 3.04359375 -2.42609375 2.3371875 -1.6796875 1.609375 C-1.12539062 1.07828125 -0.57109375 0.5471875 0 0 Z " fill="#2B2B2A" transform="translate(239,166)"/>
<path d="M0 0 C0.33 0.99 0.66 1.98 1 3 C-0.2065625 3.8971875 -0.2065625 3.8971875 -1.4375 4.8125 C-4.22327984 6.80947276 -4.22327984 6.80947276 -5 10 C-6.875 11.75 -6.875 11.75 -9 13 C-9.99 12.67 -10.98 12.34 -12 12 C-8.04 8.04 -4.08 4.08 0 0 Z " fill="#CBCBC9" transform="translate(230,190)"/>
<path d="M0 0 C0 3.54404336 -0.60989485 4.10267905 -2.875 6.6875 C-3.40867187 7.31011719 -3.94234375 7.93273437 -4.4921875 8.57421875 C-6 10 -6 10 -8 10 C-6.34908222 5.70761377 -3.26245434 3.1206085 0 0 Z " fill="#353535" transform="translate(285,119)"/>
<path d="M0 0 C0.66 0 1.32 0 2 0 C2 0.66 2 1.32 2 2 C2.99 2 3.98 2 5 2 C7 4 7 4 7.125 6.625 C7.08375 7.40875 7.0425 8.1925 7 9 C4.03595495 6.19195732 1.55500981 3.81684226 0 0 Z " fill="#D1D1CF" transform="translate(99,273)"/>
<path d="M0 0 C0.33 0.99 0.66 1.98 1 3 C-0.65 4.65 -2.3 6.3 -4 8 C-4.66 7.67 -5.32 7.34 -6 7 C-4.02 4.69 -2.04 2.38 0 0 Z " fill="#D0D0CE" transform="translate(236,126)"/>
<path d="M0 0 C0.33 0 0.66 0 1 0 C1.36923077 7.50769231 1.36923077 7.50769231 -0.5 10 C-0.995 10.33 -1.49 10.66 -2 11 C-1 3.57142857 -1 3.57142857 0 0 Z " fill="#C6C6C3" transform="translate(246,248)"/>
</svg>
