<?xml version="1.0" encoding="UTF-8"?>
<svg version="1.1" xmlns="http://www.w3.org/2000/svg" width="1080" height="589">
<path d="M0 0 C1.69170564 -0.00445668 1.69170564 -0.00445668 3.41758716 -0.0090034 C7.1989617 -0.01767912 10.98030453 -0.01919771 14.76168823 -0.02069092 C17.47213426 -0.0247833 20.18257696 -0.03032427 22.89302063 -0.03573608 C30.25893698 -0.04929873 37.62484787 -0.05534099 44.99077463 -0.05974674 C49.59373368 -0.06251285 54.19669065 -0.06675089 58.79964828 -0.07125092 C71.55417054 -0.08344122 84.30869112 -0.09374078 97.06321907 -0.09712601 C97.87901792 -0.09734557 98.69481676 -0.09756514 99.53533679 -0.09779136 C100.35304327 -0.09800964 101.17074975 -0.09822791 102.01323521 -0.09845281 C103.67010888 -0.09889627 105.32698254 -0.09934283 106.9838562 -0.09979248 C107.80571576 -0.10001391 108.62757532 -0.10023534 109.47433971 -0.10046348 C122.78368804 -0.10440932 136.09298155 -0.12185789 149.40230872 -0.145152 C163.08022889 -0.16889717 176.75812159 -0.18132931 190.43606269 -0.18249393 C198.11026934 -0.18340894 205.78440455 -0.18911746 213.45859146 -0.20731354 C219.99486256 -0.22275736 226.53104014 -0.22780987 233.06732602 -0.21957543 C236.39850553 -0.21568387 239.72934478 -0.21817583 243.06052589 -0.23063278 C246.68203093 -0.2433779 250.30305834 -0.23746099 253.92456055 -0.22705078 C254.96330641 -0.23510719 256.00205227 -0.24316359 257.07227528 -0.25146413 C267.50198495 -0.1816939 277.101616 2.28593856 286.4682312 6.82794189 C287.18680298 7.17099365 287.90537476 7.51404541 288.64572144 7.86749268 C294.61273819 10.81978649 300.21162717 14.29262047 304.8432312 19.14044189 C304.8432312 19.80044189 304.8432312 20.46044189 304.8432312 21.14044189 C305.4413562 21.38794189 306.0394812 21.63544189 306.6557312 21.89044189 C309.15950039 23.32116715 310.32395508 24.7096001 311.8432312 27.14044189 C311.8432312 27.80044189 311.8432312 28.46044189 311.8432312 29.14044189 C312.5032312 29.14044189 313.1632312 29.14044189 313.8432312 29.14044189 C327.95320581 47.47099542 328.29650618 70.77727043 328.23141479 92.77178955 C328.23548864 95.10461166 328.24083504 97.43743183 328.24734497 99.77024841 C328.26092619 106.05728732 328.25575854 112.34417719 328.24620771 118.63121843 C328.23934186 124.56570485 328.24460592 130.50017354 328.2489893 136.43466048 C328.25751065 148.90167594 328.24775978 161.36862485 328.2315882 173.83562939 C328.21818168 184.50074337 328.22052218 195.16575936 328.23434448 205.83087158 C328.25044728 218.26114204 328.25669356 230.69135445 328.24750769 243.12163389 C328.2428491 249.6852048 328.24215634 256.24870843 328.25211716 262.81227493 C328.26082967 268.9832075 328.25468696 275.15395629 328.23743439 281.32486916 C328.23349271 283.57938521 328.23456344 285.83391693 328.24122238 288.08842659 C328.30944207 313.54667746 324.2903498 335.49987458 306.2260437 354.78887939 C291.32723207 369.49229677 274.36070244 375.11986929 253.83151245 375.69464111 C253.11720881 375.71560341 252.40290516 375.7365657 251.66695595 375.75816321 C232.15762053 376.31859826 212.64460792 376.2873544 193.12891769 376.2747674 C187.82153022 376.27217553 182.51414417 376.27460034 177.20675659 376.27615356 C168.28805221 376.27795839 159.36935618 376.27561646 150.45065308 376.27081299 C140.2870424 376.26540059 130.1234519 376.26711786 119.95984173 376.27263939 C111.09988329 376.27725181 102.23993076 376.27778153 93.3799715 376.27520072 C88.14802537 376.27367819 82.91608852 376.27332759 77.68414307 376.27673721 C56.25815545 376.2885178 34.8323214 376.20368457 13.4086628 375.86802649 C11.27282645 375.83621903 9.13691639 375.80897401 7.0009594 375.78669572 C-14.23425089 375.55417486 -14.23425089 375.55417486 -24.1567688 372.14044189 C-25.04315536 371.84080473 -25.92954193 371.54116756 -26.8427887 371.23245049 C-42.9803542 365.51476374 -57.07034882 353.17072302 -65.1567688 338.14044189 C-70.87160013 326.1255614 -73.47268639 313.92530895 -73.41746521 300.62416077 C-73.42129076 299.62558082 -73.4251163 298.62700087 -73.42905778 297.59816092 C-73.439298 294.2838304 -73.43541277 290.96967604 -73.431427 287.65533447 C-73.43577852 285.26590822 -73.44096313 282.87648335 -73.44691467 280.48706055 C-73.45888565 274.68856805 -73.46146149 268.8901295 -73.45911441 263.09162614 C-73.45732505 258.37281785 -73.45909408 253.65402354 -73.46333885 248.9352169 C-73.46393404 248.26136336 -73.46452923 247.58750981 -73.46514245 246.89323645 C-73.46635433 245.52388003 -73.46756846 244.1545236 -73.46878483 242.78516718 C-73.47964183 229.96526463 -73.47750696 217.14538844 -73.47139999 204.32548442 C-73.46623582 192.62931333 -73.47747633 180.93322567 -73.4964982 169.23707107 C-73.51593037 157.19522557 -73.524123 145.15341941 -73.52037495 133.11155814 C-73.51847061 126.3639795 -73.52087481 119.61647177 -73.53508949 112.86890602 C-73.54772405 106.51831164 -73.54567062 100.16788328 -73.5326786 93.81729126 C-73.53032529 91.49708181 -73.53300242 89.17686046 -73.54130173 86.85666466 C-73.62665398 61.12337785 -70.18362328 39.19503503 -51.5317688 19.89044189 C-37.60135774 6.12410061 -19.28504533 -0.01588221 0 0 Z " fill="#010101" transform="translate(413.1567687988281,106.85955810546875)"/>
<path d="M0 0 C-1.1949683 13.45369487 -4.16681104 26.42696741 -7.20654297 39.56591797 C-8.21985842 43.95154723 -9.21273712 48.34168549 -10.20581055 52.73193359 C-11.13198023 56.82248818 -12.06567645 60.91130091 -13 65 C-13.66 64.67 -14.32 64.34 -15 64 C-15 63.34 -15 62.68 -15 62 C-15.56203125 61.76539063 -16.1240625 61.53078125 -16.703125 61.2890625 C-19.54635891 59.69337 -21.48098127 57.71075457 -23.75 55.375 C-24.94882812 54.14910156 -24.94882812 54.14910156 -26.171875 52.8984375 C-26.77515625 52.27195313 -27.3784375 51.64546875 -28 51 C-32.03666003 54.26368257 -35.61035417 57.59226648 -39.03076172 61.49951172 C-43.83322628 66.88165799 -48.87804636 71.99486584 -53.99740982 77.07257462 C-55.61558528 78.67772075 -57.23038268 80.28620271 -58.8444519 81.89547729 C-62.26845413 85.30818461 -65.69641562 88.716897 -69.125 92.125 C-73.11162502 96.08786349 -77.09652174 100.05243492 -81.07720566 104.02126694 C-82.65422524 105.59189185 -84.23426497 107.15943195 -85.81448364 108.72683716 C-90.51865658 113.40727709 -95.08885792 118.13815292 -99.40524292 123.1803894 C-102.12589687 126.28464322 -105.06219404 129.16545293 -108 132.0625 C-108.9590625 133.01588257 -108.9590625 133.01588257 -109.9375 133.98852539 C-112.63418483 136.66908015 -115.3368773 139.34354664 -118.0390625 142.01855469 C-127.55348193 151.37878718 -127.55348193 151.37878718 -136.50048828 161.2734375 C-139.3118465 164.51048167 -142.38646441 167.49093633 -145.4375 170.5 C-146.07365234 171.13164062 -146.70980469 171.76328125 -147.36523438 172.4140625 C-148.90782806 173.94505774 -150.45357314 175.47287667 -152 177 C-155.70617366 175.4487592 -158.05427517 173.18756293 -160.87280273 170.35424805 C-161.34328033 169.8840625 -161.81375793 169.41387695 -162.29849243 168.92944336 C-163.84831587 167.37823001 -165.39093522 165.82005495 -166.93359375 164.26171875 C-168.01405221 163.17752604 -169.09495613 162.09377709 -170.17628479 161.01045227 C-173.02121887 158.15789004 -175.86010274 155.29937992 -178.69775391 152.4395752 C-181.57421234 149.54273209 -184.45626238 146.65146451 -187.33789062 143.75976562 C-192.4182212 138.66030917 -197.49359851 133.55596837 -202.56541443 128.44804382 C-204.27254252 126.73147882 -205.98452628 125.01973557 -207.7000885 123.31159973 C-209.67023826 121.3314376 -211.51322617 119.32152245 -213.3125 117.1875 C-213.82425781 116.58292969 -214.33601563 115.97835937 -214.86328125 115.35546875 C-215.23839844 114.90816406 -215.61351562 114.46085937 -216 114 C-214.51346494 110.53370165 -212.54277649 108.30977964 -209.8671875 105.671875 C-209.06152344 104.87265625 -208.25585938 104.0734375 -207.42578125 103.25 C-206.58402344 102.425 -205.74226563 101.6 -204.875 100.75 C-204.02550781 99.90953125 -203.17601562 99.0690625 -202.30078125 98.203125 C-200.20495077 96.13084317 -198.10459287 94.06337607 -196 92 C-189.19111095 95.26805624 -184.60354578 101.32949009 -179.7734375 107.0078125 C-177.60999823 109.43810771 -175.31208211 111.7131559 -173 114 C-171.45112944 115.5474833 -169.90303233 117.09574091 -168.35546875 118.64453125 C-167.51435547 119.48564453 -166.67324219 120.32675781 -165.80664062 121.19335938 C-161.87109375 125.12890625 -157.93554688 129.06445312 -154 133 C-149.98800398 131.15243374 -147.24294311 128.50420858 -144.1875 125.375 C-143.69185547 124.87871094 -143.19621094 124.38242187 -142.68554688 123.87109375 C-139.98840744 121.14271332 -137.41987574 118.34373397 -134.9309082 115.42431641 C-130.4969134 110.34201768 -125.72663926 105.62019437 -120.9375 100.875 C-119.97748625 99.9194063 -119.01777547 98.96350816 -118.05834961 98.00732422 C-114.53229527 94.49449408 -111.0007571 90.98719427 -107.46936035 87.47973633 C-104.47308792 84.50334483 -101.47897769 81.52480843 -98.48757935 78.54351807 C-97.1011466 77.16346867 -95.71162702 75.78652256 -94.32202148 74.40966797 C-89.92083671 70.02543149 -85.68688809 65.58067267 -81.64059448 60.86767578 C-78.888023 57.73410978 -75.9335121 54.81030996 -72.97265625 51.875 C-72.33887558 51.24263428 -71.70509491 50.61026855 -71.05210876 49.95874023 C-69.05794022 47.97010014 -67.06029647 45.98499473 -65.0625 44 C-63.69703255 42.63955682 -62.33179614 41.27888169 -60.96679688 39.91796875 C-57.64719114 36.6092969 -54.32446727 33.30378678 -51 30 C-52.83692389 25.99625569 -55.49117916 23.28042066 -58.625 20.25 C-59.140625 19.74339844 -59.65625 19.23679688 -60.1875 18.71484375 C-61.45383339 17.47196098 -62.7263144 16.23534724 -64 15 C-60.35091863 12.56727909 -56.77075585 11.88654055 -52.5546875 10.9765625 C-51.28976974 10.69539078 -51.28976974 10.69539078 -49.9992981 10.40853882 C-47.29247486 9.80807135 -44.58385007 9.21624981 -41.875 8.625 C-39.2262743 8.04124277 -36.57795388 7.45568077 -33.92974854 6.86956787 C-32.18210209 6.48309375 -30.43417713 6.09787688 -28.68597412 5.71392822 C-24.46321654 4.78335555 -20.24833621 3.82990802 -16.04394531 2.81933594 C-15.2668924 2.63269379 -14.48983948 2.44605164 -13.6892395 2.25375366 C-12.23646074 1.90231986 -10.78462344 1.54696132 -9.33395386 1.18692017 C-6.07666952 0.39771075 -3.3835461 0 0 0 Z " fill="#FBFBFB" transform="translate(654,175)"/>
<path d="M0 0 C0.04663476 7.24187003 0.08202566 14.48370693 0.10362434 21.72569752 C0.1139981 25.08956575 0.12803785 28.45333016 0.15087891 31.81713867 C0.17531301 35.69713005 0.18652564 39.5769766 0.1953125 43.45703125 C0.20563507 44.64706253 0.21595764 45.83709381 0.22659302 47.06318665 C0.2295272 69.21306523 -7.46563655 87.25606672 -23 103 C-37.78340229 117.5755513 -56.35813583 124.44130785 -76.97900391 124.36645508 C-94.58062738 123.90669762 -111.94630311 116.85774415 -125 105 C-125.73347656 104.35804688 -126.46695312 103.71609375 -127.22265625 103.0546875 C-137.70132594 93.31293969 -144.04824055 81.61690607 -148 68 C-148.18691406 67.38092773 -148.37382812 66.76185547 -148.56640625 66.12402344 C-150.00047531 61.01641478 -150.24306742 56.28273338 -150.125 51 C-150.08375 48.36 -150.0425 45.72 -150 43 C-139.77 43 -129.54 43 -119 43 C-118.505 49.93 -118.505 49.93 -118 57 C-115.52807966 68.39829933 -109.72147085 78.30337529 -100 85 C-88.40335623 91.83764373 -75.98525416 94.12246948 -62.765625 91.3125 C-51.2071507 87.39437312 -41.3536686 79.78272323 -35.625 68.875 C-34.74062941 67.08109343 -34.74062941 67.08109343 -34 65 C-33.63519531 64.03835938 -33.27039063 63.07671875 -32.89453125 62.0859375 C-31.62227478 57.54371636 -31.95280008 53.01889249 -32.02880859 48.34106445 C-32.18376993 31.82420698 -32.18376993 31.82420698 -28.73828125 27.06640625 C-25.96827257 24.40220963 -23.14348743 22.20260912 -20 20 C-18.1352274 18.06405984 -18.1352274 18.06405984 -16.5625 16.0625 C-13.41328691 12.37430178 -10.04639715 8.93344609 -6.625 5.5 C-6.08818604 4.95867432 -5.55137207 4.41734863 -4.99829102 3.85961914 C-1.12375307 0 -1.12375307 0 0 0 Z " fill="#FBFBFB" transform="translate(576,291)"/>
<path d="M0 0 C28.38 0 56.76 0 86 0 C86.103125 7.156875 86.20625 14.31375 86.3125 21.6875 C86.35802002 23.93908936 86.40354004 26.19067871 86.45043945 28.51049805 C86.46504755 30.30255647 86.47778746 32.09463151 86.48828125 33.88671875 C86.51386108 34.81117798 86.53944092 35.73563721 86.5657959 36.68811035 C86.57026374 43.28889574 86.57026374 43.28889574 83.61962891 46.96826172 C82.75515137 47.63873535 81.89067383 48.30920898 81 49 C79.3457796 50.8048486 77.70043173 52.61785628 76.0625 54.4375 C71.61916847 59.3287543 67.04034666 64.07029659 62.375 68.75 C61.75890869 69.37060303 61.14281738 69.99120605 60.50805664 70.63061523 C56.12386249 75 56.12386249 75 55 75 C55 60.48 55 45.96 55 31 C36.85 31 18.7 31 0 31 C0 20.77 0 10.54 0 0 Z " fill="#F9F9F9" transform="translate(490,174)"/>
<path d="M0 0 C2.75512265 1.93477714 4.98737848 4.17948055 7.3359375 6.58984375 C8.22796875 7.49992187 9.12 8.41 10.0390625 9.34765625 C10.71453125 10.04632813 11.39 10.745 12.0859375 11.46484375 C10.99616168 15.03138278 10.09825908 17.44841497 7.8359375 20.46484375 C5.71326528 23.33102317 5.71326528 23.33102317 6.7109375 26.40234375 C7.3915625 27.91828125 7.3915625 27.91828125 8.0859375 29.46484375 C8.48075311 30.75059194 8.8559401 32.04253707 9.2109375 33.33984375 C9.4996875 34.37109375 9.7884375 35.40234375 10.0859375 36.46484375 C11.01277344 36.59761719 11.93960938 36.73039062 12.89453125 36.8671875 C14.09207031 37.04378906 15.28960938 37.22039062 16.5234375 37.40234375 C17.71839844 37.57636719 18.91335938 37.75039063 20.14453125 37.9296875 C23.0859375 38.46484375 23.0859375 38.46484375 24.0859375 39.46484375 C24.17245361 40.88054498 24.19298654 42.30043875 24.18359375 43.71875 C24.17875977 44.99975586 24.17875977 44.99975586 24.17382812 46.30664062 C24.16125977 47.65338867 24.16125977 47.65338867 24.1484375 49.02734375 C24.14392578 49.92904297 24.13941406 50.83074219 24.13476562 51.75976562 C24.12293975 53.99485689 24.1064597 56.22981812 24.0859375 58.46484375 C23.12171875 58.64917969 22.1575 58.83351563 21.1640625 59.0234375 C13.97837929 60.43427036 13.97837929 60.43427036 8.23046875 64.59375 C6.44527266 68.50571401 5.55332232 71.33415898 7.0859375 75.46484375 C8.35242349 77.52994192 9.72671997 79.48716592 11.125 81.46484375 C12.0859375 83.46484375 12.0859375 83.46484375 12 85.421875 C10.74700037 88.22238272 8.99973256 89.98496625 6.8359375 92.15234375 C6.06765625 92.93996094 5.299375 93.72757812 4.5078125 94.5390625 C1.85751344 96.64647772 0.45702952 97.36413503 -2.9140625 97.46484375 C-5.3506985 96.36335076 -7.40589134 94.97025283 -9.6328125 93.49609375 C-12.54132297 92.18128765 -13.89017243 92.58663392 -16.9140625 93.46484375 C-18.02201172 93.72974609 -18.02201172 93.72974609 -19.15234375 94 C-20.17908203 94.26103516 -20.17908203 94.26103516 -21.2265625 94.52734375 C-22.4434375 94.83671875 -23.6603125 95.14609375 -24.9140625 95.46484375 C-25.9040625 100.08484375 -26.8940625 104.70484375 -27.9140625 109.46484375 C-32.2040625 109.46484375 -36.4940625 109.46484375 -40.9140625 109.46484375 C-39.79660466 106.11247023 -38.68899115 102.78976352 -37.4765625 99.4765625 C-37.09612793 98.42311646 -37.09612793 98.42311646 -36.70800781 97.34838867 C-36.16866991 95.85658535 -35.62624122 94.36589657 -35.08105469 92.8762207 C-33.67098724 88.93885884 -32.63729758 85.32794737 -32.1640625 81.15234375 C-30.9140625 77.46484375 -30.9140625 77.46484375 -28.82421875 76.25390625 C-27.06880169 75.59397502 -25.29806423 74.97364187 -23.515625 74.390625 C-18.27051892 72.52412329 -15.16855316 69.61085061 -12.375 64.83203125 C-8.65247332 56.86707194 -7.34016698 49.31672124 -9.6484375 40.734375 C-12.81651109 32.15201171 -16.56911242 26.68178469 -24.73046875 22.41015625 C-26.78591707 21.52031995 -28.72760473 20.93089144 -30.9140625 20.46484375 C-31.37692791 15.71404459 -31.642687 11.19554544 -30.9140625 6.46484375 C-28.61107201 3.82347527 -26.20286806 2.59537066 -22.9140625 1.46484375 C-21.3671875 2.48578125 -21.3671875 2.48578125 -19.7890625 3.52734375 C-17.18266903 4.9898491 -16.03945015 5.46217593 -12.9765625 5.52734375 C-9.45694748 4.30625282 -6.81884284 2.54450943 -3.84375 0.328125 C-1.9140625 -0.53515625 -1.9140625 -0.53515625 0 0 Z " fill="#FAFAF9" transform="translate(616.9140625,272.53515625)"/>
</svg>
